#!OML:ASF E:/inclinewalkrobotboard/Project1/Captureday1/Session1/subject1.ASF
:FULLY-SPECIFIED
:DEGREES
26
root 0 0 0 1.1053332030094785 -3.7050797136796367 1.813642993046033
lowerback 11.910291983792805 0.8625484068991942 -0.028716917186214302
upperback -4.22541440305465 1.0970591745405545 -0.5454390903808647
thorax -11.288837280693707 0.5010604871573837 -0.807338462613225
lowerneck -5.816697490764048 1.475305700935969 4.567790568436318
upperneck 18.088215068821725 2.9312364461345357 -8.332154229833593
head 6.613695003122645 1.0654409768499298 -3.2224363784824592
rclavicle 1.4544059459445008E-15 -1.2116163659141914E-15
rhumerus 19.41451278299456 14.032220663895338 -48.377346342088636
rradius 71.74081363548603
rwrist 26.66588382159015
rhand -34.61671405043209 -56.25961270669398
rfingers 7.125020000000028
rthumb -7.7587168718465325 -86.19074599615067
lclavicle 1.2479964448831143E-15 -1.8928390160396015E-15
lhumerus 20.74232806993995 -12.307975329616443 44.86750234557312
lradius 69.75490924504541
lwrist -22.66574766410023
lhand -44.489671324315474 -69.25783835476273
lfingers 7.12502000000002
lthumb -17.31677658698635 -39.98142552911367
rfemur -24.645122629360188 -2.0970648283992745 17.181884099359426
rtibia 53.83662608853391
rfoot -29.095733374505436 -17.02951625003454
rtoes -18.318154819636444
lfemur -26.245271323119383 2.519357560225828 -18.01831600658535
ltibia 54.199948564472585
lfoot -31.063365726636516 -3.4474327194257937
ltoes -20.155945384829295
27
root 0 0 0 1.1051359012627566 -3.7052224280753343 1.8136604795442905
lowerback 11.91029199529136 0.8625246569646449 -0.028682414803018613
upperback -4.225308392956138 1.097038669878012 -0.5454075668651298
thorax -11.28871801224949 0.5010488548838116 -0.8073161807110505
lowerneck -5.8160382699721636 1.475201323537937 4.5679146428152
upperneck 18.087841612093666 2.931117697744333 -8.33249285132112
head 6.61346444224114 1.0653871047982095 -3.2225768496339966
rclavicle 1.4574949696423861E-15 -1.2116501258592956E-15
rhumerus 19.415177682034567 14.032942117103396 -48.377185530802585
rradius 71.74121448727885
rwrist 26.665642291545705
rhand -34.61586699809707 -56.25847821549773
rfingers 7.125020000000028
rthumb -7.757893515562996 -86.18962951810514
lclavicle 1.2507363959858248E-15 -1.8931308296809124E-15
lhumerus 20.74236895374463 -12.308313670638029 44.867172843949945
lradius 69.75503073217122
lwrist -22.665780450067107
lhand -44.48938014011572 -69.2562244666498
lfingers 7.12502000000002
lthumb -17.316493791754034 -39.97984908992489
rfemur -24.645073098414237 -2.097047868538173 17.181906090325718
rtibia 53.83668090871363
rfoot -29.09575858759741 -17.0294600958381
rtoes -18.318207441614355
lfemur -26.245105943569627 2.519453628323907 -18.01830876649434
ltibia 54.19998488277209
lfoot -31.063307429836982 -3.447367345089698
ltoes -20.15650994467554
28
root 0 0 0 1.104994086886098 -3.705324002385786 1.8136734078057117
lowerback 11.910293314853131 0.8625074744860678 -0.02865738948262983
upperback -4.225230293523863 1.097023910009137 -0.5453846420826086
thorax -11.288630899528965 0.501040468763693 -0.8072999348794501
lowerneck -5.81556112125271 1.4751241623510127 4.568004172482489
upperneck 18.087568511252172 2.931029387251284 -8.332738570577055
head 6.61329669126871 1.065347045568964 -3.2226789435266316
rclavicle 1.4580905868492837E-15 -1.2113730498596512E-15
rhumerus 19.41547487355113 14.033251880268816 -48.37705558298119
rradius 71.74137841557655
rwrist 26.6655591421057
rhand -34.61542839399186 -56.25789731496822
rfingers 7.125020000000028
rthumb -7.7574689116956765 -86.18906679869573
lclavicle 1.251142636950347E-15 -1.8928585647451096E-15
lhumerus 20.74241621536825 -12.308489427672637 44.86700198230237
lradius 69.75510351820321
lwrist -22.665806931299937
lhand -44.48925493531719 -69.25544849869722
lfingers 7.12502000000002
lthumb -17.316371067259364 -39.979070392664866
rfemur -24.645070418704414 -2.097045703126018 17.181913583990166
rtibia 53.83670032620939
rfoot -29.095793843578086 -17.0294523189732
rtoes -18.318215153014208
lfemur -26.245004223287786 2.519512635742638 -18.018304417934107
ltibia 54.19998254698366
lfoot -31.063283328110277 -3.447308238599068
ltoes -20.156867916028336
29
root 0 0 0 1.1057754555027757 -3.704753479646343 1.8135973382234252
lowerback 11.91028173231487 0.8626006551057198 -0.02878233280255882
upperback -4.225641975748832 1.0971061174116978 -0.5455077342590455
thorax -11.289086635588868 0.5010863090042592 -0.8073918997970994
lowerneck -5.8180939475361395 1.4755082207857195 4.5675206513363955
upperneck 18.088975453449855 2.931459578346246 -8.3314184203007
head 6.614173169037446 1.0655430118908673 -3.222134992303439
rclavicle 1.4624907432184179E-15 -1.2193516749560832E-15
rhumerus 19.413826322674282 14.032082906935681 -48.37985399247236
rradius 71.74082876423441
rwrist 26.664383946605295
rhand -34.619959950949806 -56.262918680064644
rfingers 7.125020000000028
rthumb -7.761801781677393 -86.1940216130051
lclavicle 1.2743381598387648E-15 -1.9045536390618565E-15
lhumerus 20.74142790422075 -12.307193392096329 44.86733139153722
lradius 69.75439827665147
lwrist -22.66571586942778
lhand -44.48919324190847 -69.25864030095457
lfingers 7.12502000000002
lthumb -17.316373551023965 -39.98277038302081
rfemur -24.644712688398233 -2.0973312541876736 17.182581867509864
rtibia 53.83764960237687
rfoot -29.09694312275395 -17.0305311500006
rtoes -18.318581145905647
lfemur -26.247510773958805 2.518658427162498 -18.018582552959046
ltibia 54.201037923791944
lfoot -31.064635859401626 -3.4490980706847103
ltoes -20.151320870916916
